{"title":"Sabotage 2014 1080p BluRay x264 AC3 DD5.1 {GPR} Download","uid":10541993,"size":3247820851,"categoryP":"video","categoryS":"hd___movies","magnet":"?xt=urn:btih:721af3686d22a6b395358989178895cff10aaf6f&amp;dn=Sabotage+2014+1080p+BluRay+x264+AC3+DD5.1+%7BGPR%7D+Download&amp;tr=udp%3A%2F%2Ftracker.openbittorrent.com%3A80&amp;tr=udp%3A%2F%2Fopen.demonii.com%3A1337&amp;tr=udp%3A%2F%2Ftracker.coppersurfer.tk%3A6969&amp;tr=udp%3A%2F%2Fexodus.desync.com%3A6969","seeders":2,"leechers":0,"uploader":"GamePersia","files":2,"time":1405239168,"description":"Sabotage 2014 1080p BluRay x264 AC3 DD5.1 {GPR} Download\n\n[img]http://i.imgur.com/wau4QkG.jpg[/img]\n\n[img]http://i.imgur.com/o7BTnAf.png[/img]\nDirector: David Ayer\nWriters: Skip Woods, David Ayer\nStars: Arnold Schwarzenegger, Sam Worthington, Terrence Howard \nMembers of an elite DEA task force find themselves being taken down one by one after they rob a drug cartel safe house.\n[img]http://i.imgur.com/fVdkiiC.png[/img]\n[b]General[/b]\n\nFormat                                   : Matroska\nFormat version                           : Version 4 / Version 2\nFile size                                : 3.02 GiB\nDuration                                 : 1h 49mn\nOverall bit rate                         : 3 949 Kbps\n\n[b]Video[/b]\nID                                       : 1\nFormat                                   : AVC\nFormat/Info                              : Advanced Video Codec\nFormat profile                           : &lt;a class=&quot;__cf_email__&quot; href=&quot;/cdn-cgi/l/email-protection&quot; data-cfemail=&quot;afe7c6c8c7efe39b819e&quot;&gt;[email&amp;#160;protected]&lt;/a&gt;&lt;script cf-hash='f9e31' type=&quot;text/javascript&quot;&gt;\n/* &lt;![CDATA[ */!function(){try{var t=&quot;currentScript&quot;in document?document.currentScript:function(){for(var t=document.getElementsByTagName(&quot;script&quot;),e=t.length;e--;)if(t[e].getAttribute(&quot;cf-hash&quot;))return t[e]}();if(t&amp;&amp;t.previousSibling){var e,r,n,i,c=t.previousSibling,a=c.getAttribute(&quot;data-cfemail&quot;);if(a){for(e=&quot;&quot;,r=parseInt(a.substr(0,2),16),n=2;a.length-n;n+=2)i=parseInt(a.substr(n,2),16)^r,e+=String.fromCharCode(i);e=document.createTextNode(e),c.parentNode.replaceChild(e,c)}}}catch(u){}}();/* ]]&gt; */&lt;/script&gt;\nFormat settings, CABAC                   : Yes\nFormat settings, ReFrames                : 4 frames\nCodec ID                                 : V_MPEG4/ISO/AVC\nDuration                                 : 1h 49mn\nBit rate                                 : 3 500 Kbps\nWidth                                    : 1 920 pixels\nHeight                                   : 1 040 pixels\nDisplay aspect ratio                     : 1.85:1\nFrame rate mode                          : Constant\nFrame rate                               : 23.976 fps\nColor space                              : YUV\nChroma subsampling                       : 4:2:0\nBit depth                                : 8 bits\nScan type                                : Progressive\nBits/(Pixel*Frame)                       : 0.073\nStream size                              : 2.62 GiB (87%)\nLanguage                                 : English\nDefault                                  : Yes\n\n[b]Audio[/b]\nID                                       : 2\nFormat                                   : AC-3\nFormat/Info                              : Audio Coding 3\nMode extension                           : CM (complete main)\nFormat settings, Endianness              : Big\nCodec ID                                 : A_AC3\nDuration                                 : 1h 49mn\nBit rate mode                            : Constant\nBit rate                                 : 448 Kbps\nChannel(s)                               : 6 channels\nChannel positions                        : Front: L C R, Side: L R, LFE\nSampling rate                            : 48.0 KHz\nBit depth                                : 16 bits\nCompression mode                         : Lossy\nStream size                              : 351 MiB (11%)\nLanguage                                 : English\nDefault                                  : Yes\nForced                                   : No\n[img]http://i.imgur.com/L89zYC1.png[/img]\n[img]http://i.imgur.com/O8zHXWp.jpg[/img]\n[img]http://i.imgur.com/an4EjFb.jpg[/img]\n[img]http://i.imgur.com/1fje94Z.png[/img]\n\nSeed Atleast 900 Mb To Aid The Files For Future Downloads Also\nIf You Like Our Work For You, Appreciate Us By Writing A Comment","torrent":{"xt":"urn:btih:721af3686d22a6b395358989178895cff10aaf6f","amp;dn":"Sabotage+2014+1080p+BluRay+x264+AC3+DD5.1+%7BGPR%7D+Download","amp;tr":["udp%3A%2F%2Ftracker.openbittorrent.com%3A80","udp%3A%2F%2Fopen.demonii.com%3A1337","udp%3A%2F%2Ftracker.coppersurfer.tk%3A6969","udp%3A%2F%2Fexodus.desync.com%3A6969"],"infoHash":"721af3686d22a6b395358989178895cff10aaf6f","infoHashBuffer":{"type":"Buffer","data":[114,26,243,104,109,34,166,179,149,53,137,137,23,136,149,207,241,10,175,111]},"announce":[],"urlList":[]}}